<?xml version="1.0" encoding="utf-8"?>
<!-- Generator: Adobe Illustrator 24.3.0, SVG Export Plug-In . SVG Version: 6.00 Build 0)  -->
<svg version="1.1" id="Layer_1" xmlns="http://www.w3.org/2000/svg" xmlns:xlink="http://www.w3.org/1999/xlink" x="0px" y="0px"
	 width="100%" height="100%" viewBox="0 0 100 100" enable-background="new 0 0 100 100" xml:space="preserve">
<g>
	
		<path fill="#F1553B" stroke="#913323" stroke-width="2" stroke-linecap="round" stroke-linejoin="round" stroke-miterlimit="10" d="
		M76.8,32.1c-5.9-4.2-9-5.6-15.2-5.9c-6.2-0.3-13.4,0-16.3,0c-2.9,0-5.5,0.6-8.3,2.9c-2.8,2.3-11.2,7.9-14.2,12.8
		c-2.8,4.6-5.8,11.3-5.9,16.3c0.4-0.1,0.8-0.1,1.1-0.1c1.1,0,2.1,0.2,3,0.7c1.7-2.7,4.7-6.4,7.7-6.9c4.1-0.7,8.5-1.7,10.6,1
		c-0.1,1.8-0.9,5.9,2.9,8.7c0.2-0.5,0.5-1.1,0.8-1.7c5-8.7,16-19.4,31.1-26.8C74.8,32.6,75.8,32.3,76.8,32.1
		C76.8,32.1,76.8,32.1,76.8,32.1z"/>
	
		<path fill="#FFFFFF" stroke="#AAA7A0" stroke-width="2" stroke-linecap="round" stroke-linejoin="round" stroke-miterlimit="10" d="
		M21,58.8c-0.9-0.4-1.9-0.7-3-0.7c-0.4,0-0.8,0-1.1,0.1c-3.5,0.5-6.2,3.6-6.2,7.2c0,4,3.3,7.3,7.3,7.3s7.3-3.3,7.3-7.3
		C25.3,62.5,23.5,60,21,58.8z"/>
	
		<path fill="#FFFFFF" stroke="#AAA7A0" stroke-width="2" stroke-linecap="round" stroke-linejoin="round" stroke-miterlimit="10" d="
		M89,41.7c-0.8-2-2.1-5-3.4-6.9c-2-2.8-5.6-3.4-8.9-2.7c-1,0.2-1.9,0.5-2.8,1c-15.1,7.4-26,18.1-31.1,26.8c-0.3,0.6-0.6,1.1-0.8,1.7
		c-2.3,5.7,1.7,9.1,3.1,10.3c1.5,1.3,3.6,3.9,6.8,0c3.6-4.4,8.4-10.1,16.6-14.8c4.4-2.5,13.5-6.8,17.1-8.5
		C89.3,46.9,89.8,43.7,89,41.7z"/>
	<path fill="none" stroke="#913323" stroke-width="2" stroke-linecap="round" stroke-linejoin="round" stroke-miterlimit="10" d="
		M39.2,52.9c0.4-4.3,0.5-4,1.3-5.6"/>
</g>
</svg>
